<?xml version="1.0" standalone="no"?>
<!DOCTYPE svg PUBLIC "-//W3C//DTD SVG 20010904//EN"
 "http://www.w3.org/TR/2001/REC-SVG-20010904/DTD/svg10.dtd">
<svg version="1.0" xmlns="http://www.w3.org/2000/svg"
 width="400.000000pt" height="400.000000pt" viewBox="0 0 400.000000 400.000000"
 preserveAspectRatio="xMidYMid meet">

<g transform="translate(0.000000,400.000000) scale(0.100000,-0.100000)"
fill="#ffffff" stroke="none">
<path d="M40 3945 c-7 -25 -10 -58 -7 -74 4 -16 2 -69 -4 -116 -5 -47 -6 -92
-2 -98 4 -6 8 -70 9 -142 1 -71 7 -142 13 -157 10 -26 7 -32 -11 -30 -3 1 -4
-17 -1 -38 3 -22 2 -40 -4 -40 -8 0 -4 -60 11 -147 3 -18 2 -33 -2 -33 -4 0
-8 -126 -8 -280 -1 -154 2 -280 6 -280 4 0 10 -11 12 -25 3 -13 1 -22 -3 -19
-5 3 -7 -8 -4 -23 8 -49 13 -183 6 -183 -3 0 -7 -163 -8 -363 0 -199 -4 -407
-7 -462 -5 -71 -2 -123 9 -180 8 -44 15 -130 14 -195 -1 -210 -6 -347 -13
-358 -8 -14 4 -92 15 -92 5 0 4 -12 -2 -27 -6 -16 -13 -111 -15 -213 -2 -102
-6 -211 -8 -242 -3 -43 -1 -58 9 -58 8 0 11 -7 8 -19 -6 -25 25 -35 62 -21 14
5 31 8 36 4 5 -3 8 5 6 17 -3 35 22 35 29 0 4 -19 11 -28 18 -24 6 4 57 7 114
8 80 0 105 3 112 15 7 12 12 12 22 2 14 -14 78 -16 78 -2 0 6 -11 8 -25 4 -18
-4 -27 -1 -31 10 -4 9 -18 16 -34 16 -20 0 -31 6 -35 19 -4 13 -12 18 -23 15
-14 -5 -15 -4 -2 5 11 7 19 5 33 -10 23 -24 30 -24 22 1 -8 25 12 23 36 -3 15
-16 17 -16 30 0 12 14 12 16 0 8 -10 -6 -12 -4 -6 4 5 8 18 11 37 7 21 -4 28
-2 25 7 -5 16 -196 13 -246 -5 -20 -7 -39 -11 -43 -10 -12 3 -10 -16 2 -23 6
-3 10 -11 10 -16 0 -6 -7 -3 -16 5 -8 9 -20 16 -25 16 -5 0 -9 7 -9 16 0 10
-6 13 -18 10 -11 -4 -24 3 -37 20 -17 23 -20 45 -22 158 -1 72 -6 164 -11 204
-5 46 -5 75 1 79 6 3 7 1 3 -5 -4 -7 -2 -12 3 -12 17 0 13 40 -4 46 -17 7 -20
68 -5 108 5 15 6 35 1 48 -5 14 -4 32 2 46 7 16 7 30 -3 50 -7 15 -14 68 -16
117 -1 50 -5 117 -8 149 -5 42 -3 65 7 80 23 35 28 89 13 133 -8 23 -12 43
-10 46 3 3 12 34 21 68 17 70 18 202 2 262 -5 20 -9 106 -9 190 3 291 0 539
-6 548 -3 5 -1 9 5 9 10 0 7 753 -4 770 -3 4 -1 20 5 34 6 17 6 52 1 99 -5 40
-12 151 -15 248 -5 174 -5 176 17 187 30 15 131 24 252 22 137 -3 169 -3 250
-2 39 1 84 1 100 1 17 -1 44 0 60 1 17 1 46 2 65 1 48 -1 818 8 855 10 17 1
86 -2 155 -6 69 -5 143 -8 165 -8 71 1 426 13 560 19 72 3 139 5 150 4 54 -4
361 0 440 6 50 3 128 7 175 8 47 1 90 5 97 9 6 4 13 2 15 -4 3 -8 19 -8 58 -1
30 6 83 9 118 8 34 -2 81 0 103 4 23 4 49 5 59 3 20 -5 55 -68 45 -82 -3 -5 1
-11 7 -14 9 -3 8 -9 -5 -19 -21 -16 -26 -70 -8 -92 7 -9 9 -21 5 -28 -5 -7
-10 -180 -11 -384 l-3 -371 24 4 c13 3 27 0 30 -5 4 -7 -4 -10 -21 -9 -24 2
-28 -2 -31 -26 -2 -16 2 -34 8 -42 7 -8 8 -20 4 -27 -10 -16 -13 -216 -4 -243
4 -12 1 -34 -8 -53 -13 -26 -14 -37 -4 -52 6 -11 9 -26 6 -35 -4 -8 -1 -22 6
-30 10 -12 10 -15 -2 -15 -12 0 -15 -10 -12 -46 1 -25 7 -51 13 -57 6 -8 5
-20 -4 -37 -17 -29 -20 -100 -5 -100 7 0 7 -6 2 -17 -5 -10 -7 -24 -5 -31 3
-7 0 -19 -7 -26 -6 -8 -11 -47 -11 -88 0 -40 0 -84 0 -98 0 -85 12 -198 24
-217 4 -6 1 -13 -7 -16 -10 -4 -13 -17 -9 -46 4 -26 1 -46 -7 -56 -9 -11 -10
-18 -1 -29 6 -7 9 -21 5 -30 -4 -10 0 -18 10 -22 15 -6 15 -7 0 -19 -12 -8
-14 -14 -6 -19 16 -10 15 -27 0 -23 -7 1 -13 -9 -13 -25 0 -14 -3 -29 -7 -33
-7 -8 11 -56 25 -66 12 -9 8 -23 -9 -32 -9 -5 -12 -16 -9 -27 4 -12 -1 -22
-12 -29 -16 -9 -16 -10 -1 -11 20 0 44 -60 23 -60 -20 0 -17 -67 4 -75 15 -6
14 -7 -2 -16 -9 -6 -14 -15 -11 -21 9 -14 9 -177 1 -198 -8 -20 -2 -120 8
-144 4 -10 4 -21 -2 -25 -6 -3 -8 -26 -6 -51 2 -25 3 -58 3 -74 0 -16 5 -33
12 -38 10 -6 9 -8 -3 -8 -14 0 -15 -19 -14 -147 1 -145 1 -148 23 -151 12 -2
22 -6 22 -10 -1 -28 -54 -41 -64 -15 -6 14 -4 14 10 2 15 -12 17 -12 12 1 -6
18 -55 22 -243 21 -56 0 -84 4 -95 14 -21 19 -44 19 -81 0 -16 -9 -34 -13 -40
-10 -5 4 -60 1 -122 -6 -62 -7 -138 -12 -169 -12 -36 0 -58 -4 -58 -11 0 -6
-5 -4 -10 4 -7 12 -50 15 -247 18 -131 2 -245 3 -253 4 -8 0 -151 -2 -317 -4
-228 -3 -305 -8 -317 -17 -9 -8 -16 -9 -16 -4 0 5 -34 9 -75 9 -41 -1 -75 -3
-75 -5 0 -2 7 -9 16 -16 13 -9 14 -16 7 -30 -10 -17 -12 -16 -26 11 -11 20
-16 24 -17 12 0 -11 -8 -18 -19 -18 -11 0 -27 -3 -37 -7 -12 -4 -15 -2 -12 8
3 8 15 13 30 11 19 -2 27 2 31 17 4 18 0 21 -28 21 -25 0 -39 -7 -54 -27 l-21
-28 9 25 c8 23 6 26 -18 26 -14 0 -38 3 -53 7 -21 6 -32 2 -49 -15 -17 -18
-21 -19 -16 -5 4 11 1 17 -8 17 -8 0 -15 -5 -15 -11 0 -8 -4 -8 -12 -1 -22 17
-91 24 -100 10 -4 -7 -8 -8 -8 -3 0 6 -16 9 -37 8 -21 -2 -65 -3 -98 -2 -33 1
-69 1 -80 1 -11 0 -47 -1 -80 -1 -33 0 -78 0 -100 -1 -22 0 -64 -1 -93 -1 -45
-1 -52 -4 -47 -18 3 -9 -2 -7 -12 6 -16 20 -26 22 -76 19 -72 -4 -86 -15 -63
-51 10 -15 15 -33 12 -41 -6 -16 -2 -17 104 -15 41 0 114 0 162 1 85 0 88 1
102 28 l16 27 -3 -25 c-2 -21 3 -26 26 -28 17 -2 27 1 27 10 0 10 2 10 9 -1 6
-10 34 -13 105 -12 54 0 101 3 106 6 5 3 11 1 15 -5 4 -6 32 -8 73 -4 37 3
231 7 432 7 l365 2 -3 32 c-3 26 0 32 12 27 8 -3 14 -16 13 -31 l-2 -26 194
-3 c130 -2 199 0 208 8 7 6 13 6 13 2 0 -5 117 -10 263 -11 144 0 367 -2 495
-2 128 -1 237 1 242 4 5 3 12 1 15 -5 4 -6 16 -8 28 -4 12 4 79 6 150 5 127
-2 127 -2 136 22 15 38 16 178 7 727 -4 278 -8 528 -8 555 0 28 -5 53 -12 57
-8 6 -8 8 2 8 6 0 12 7 12 15 0 8 -6 15 -12 15 -8 0 -9 3 -3 8 16 11 17 27 18
205 1 137 -2 170 -14 178 -8 5 -9 9 -2 9 15 0 21 29 12 62 -4 15 -4 30 1 33 7
4 11 88 11 203 0 9 0 69 0 132 0 63 0 122 -1 130 0 8 -1 116 -1 240 -1 124 -4
227 -8 230 -3 3 -11 15 -18 26 -11 20 -10 21 10 16 20 -5 20 -4 8 11 -7 9 -10
17 -7 17 4 0 2 9 -3 19 -8 14 -7 20 3 24 10 4 14 24 15 66 0 51 -3 61 -17 61
-15 1 -15 2 -1 13 10 8 17 32 19 67 3 55 3 150 -1 166 -1 5 2 34 6 64 5 30 8
60 6 65 -10 32 -13 69 -15 145 0 47 -4 90 -9 97 -4 6 -3 14 3 18 6 4 7 12 3
18 -10 17 -10 40 1 55 5 7 4 12 -2 12 -6 0 -7 14 0 42 6 29 6 44 -1 46 -6 2
-11 13 -11 25 0 16 -3 18 -12 9 -19 -19 -30 -14 -22 10 6 19 4 21 -7 12 -8 -6
-36 -14 -64 -17 -27 -3 -60 -9 -72 -12 -13 -4 -23 -3 -23 3 0 5 10 13 23 17
19 6 20 8 4 12 -10 3 -23 0 -30 -5 -7 -5 -99 -10 -207 -11 -107 0 -208 -4
-225 -7 -28 -6 -29 -5 -15 12 14 18 14 18 -3 5 -19 -15 -237 -23 -237 -9 0 4
-17 -2 -37 -14 -26 -16 -38 -18 -41 -10 -5 15 -35 15 -50 0 -7 -7 -12 -8 -12
-2 0 10 -28 17 -65 15 -76 -2 -436 -11 -463 -11 -24 0 -35 -6 -43 -22 l-10
-23 5 23 c5 25 11 24 -154 23 -134 -2 -160 -7 -157 -31 1 -10 -2 -18 -8 -17
-5 1 -9 12 -7 25 2 20 -2 22 -38 22 -27 0 -43 -5 -46 -15 -4 -8 -11 -15 -16
-15 -7 0 -6 5 1 14 9 11 -24 13 -201 11 -203 -2 -212 -3 -229 -24 -21 -26 -29
-27 -22 -2 6 25 -10 33 -41 21 -16 -6 -26 -6 -26 0 0 10 -87 7 -131 -5 -16 -4
-30 -2 -33 4 -9 13 -172 15 -180 2 -4 -6 -21 -5 -42 1 -25 7 -50 6 -80 -1 -58
-15 -74 -14 -74 4 0 8 -4 15 -9 15 -13 0 -41 -29 -41 -43 -1 -7 -9 -2 -19 11
-14 15 -30 22 -55 22 -20 0 -36 -4 -36 -10 0 -6 -9 -6 -25 0 -13 5 -37 9 -52
8 -28 -1 -286 12 -333 17 -14 1 -29 -1 -35 -5 -5 -4 -23 -10 -40 -13 -16 -3
-40 -8 -51 -12 -15 -5 -28 0 -47 19 -14 13 -28 22 -31 18 -4 -3 -4 1 0 11 3 9
2 17 -4 17 -5 0 -15 -20 -22 -45z m1342 -57 c-7 -7 -12 -8 -12 -2 0 14 12 26
19 19 2 -3 -1 -11 -7 -17z m338 2 c0 -4 -7 -11 -16 -14 -10 -4 -13 -2 -8 7 4
6 -2 4 -13 -6 -18 -16 -21 -16 -27 -2 -4 10 2 19 17 24 23 9 47 4 47 -9z
m-140 -5 c0 -8 -2 -15 -4 -15 -2 0 -6 7 -10 15 -3 8 -1 15 4 15 6 0 10 -7 10
-15z m194 0 c-4 -8 -8 -15 -10 -15 -2 0 -4 7 -4 15 0 8 4 15 10 15 5 0 7 -7 4
-15z m356 11 c0 -3 -4 -8 -10 -11 -5 -3 -10 -1 -10 4 0 6 5 11 10 11 6 0 10
-2 10 -4z m1775 -1066 c3 -5 1 -10 -4 -10 -6 0 -11 5 -11 10 0 6 2 10 4 10 3
0 8 -4 11 -10z m22 -516 c-3 -3 -12 -4 -19 -1 -8 3 -5 6 6 6 11 1 17 -2 13 -5z
m-26 -1541 c13 -17 13 -17 -6 -3 -11 8 -22 16 -24 17 -2 2 0 3 6 3 6 0 17 -8
24 -17z m-11 -153 c8 -5 12 -11 9 -14 -3 -3 -14 1 -25 9 -21 16 -8 20 16 5z
m17 -206 c-3 -3 -12 -4 -19 -1 -8 3 -5 6 6 6 11 1 17 -2 13 -5z m-12 -44 c3
-5 2 -10 -4 -10 -5 0 -13 5 -16 10 -3 6 -2 10 4 10 5 0 13 -4 16 -10z m-21
-121 c-8 -13 -21 -11 -27 5 -4 10 0 12 14 9 10 -3 16 -9 13 -14z m-3134 -154
c1 18 2 17 15 -5 13 -24 12 -25 -13 -32 -32 -9 -37 -4 -46 42 l-6 35 25 -30
c21 -26 24 -28 25 -10z m1062 13 c-7 -7 -12 -8 -12 -2 0 14 12 26 19 19 2 -3
-1 -11 -7 -17z m-738 -4 c9 -23 7 -36 -3 -30 -12 8 -21 46 -11 46 4 0 11 -7
14 -16z m26 -6 c0 -19 -2 -20 -10 -8 -13 19 -13 30 0 30 6 0 10 -10 10 -22z
m47 -10 c-3 -7 -5 -2 -5 12 0 14 2 19 5 13 2 -7 2 -19 0 -25z m48 22 c3 -5 1
-10 -4 -10 -6 0 -11 5 -11 10 0 6 2 10 4 10 3 0 8 -4 11 -10z m120 -21 c-5
-16 -9 -18 -15 -9 -4 7 -3 19 3 25 16 17 20 11 12 -16z m-445 9 c0 6 8 12 17
12 15 0 14 -2 -2 -14 -21 -15 -35 -12 -35 7 0 7 4 6 10 -3 6 -10 10 -11 10 -2z
m575 2 c3 -5 1 -10 -4 -10 -6 0 -11 5 -11 10 0 6 2 10 4 10 3 0 8 -4 11 -10z
m83 -9 c3 -8 -1 -12 -9 -9 -7 2 -15 10 -17 17 -3 8 1 12 9 9 7 -2 15 -10 17
-17z m1152 12 c0 -5 -4 -14 -9 -22 -7 -11 -11 -9 -20 8 -10 18 -9 21 9 21 11
0 20 -3 20 -7z m-1880 -31 c0 -15 -2 -15 -10 -2 -13 20 -13 33 0 25 6 -3 10
-14 10 -23z m2780 14 c0 -3 -4 -8 -10 -11 -5 -3 -10 -1 -10 4 0 6 5 11 10 11
6 0 10 -2 10 -4z m-3329 -29 c-10 -9 -11 -8 -5 6 3 10 9 15 12 12 3 -3 0 -11
-7 -18z"/>
<path d="M2228 3380 c-32 -22 -62 -40 -67 -40 -6 0 -15 -9 -21 -20 -6 -11 -17
-20 -25 -20 -8 0 -19 -8 -24 -19 -11 -19 -55 -52 -75 -55 -10 -1 -26 -14 -97
-80 -30 -28 -36 -29 -110 -27 -53 1 -94 8 -125 21 -26 11 -49 19 -51 16 -2 -2
-16 7 -29 19 -14 13 -31 22 -39 19 -7 -3 -18 7 -26 25 -16 36 -22 38 -49 11
-11 -11 -29 -20 -39 -20 -10 0 -21 -6 -24 -14 -4 -10 -16 -13 -34 -11 -15 2
-34 4 -40 4 -7 1 -12 7 -10 14 1 6 -6 12 -15 12 -9 0 -20 4 -24 8 -4 4 -19 7
-33 7 -35 -1 -135 -36 -139 -49 -5 -15 -32 -14 -32 0 0 7 -11 9 -30 6 -23 -5
-32 -2 -40 14 -6 11 -17 18 -23 16 -7 -2 -17 3 -23 11 -9 13 -17 9 -50 -20
-32 -29 -50 -37 -99 -43 -33 -4 -67 -13 -75 -20 -8 -7 -31 -16 -50 -20 -19 -4
-41 -12 -47 -17 -7 -6 -19 -8 -28 -5 -8 4 -17 2 -20 -3 -4 -6 -19 -10 -34 -10
-16 0 -34 -6 -40 -14 -7 -8 -26 -18 -42 -21 -16 -4 -31 -11 -34 -16 -4 -5 -19
-9 -34 -9 -15 0 -36 -6 -46 -14 -10 -7 -26 -11 -34 -9 -9 2 -22 -5 -29 -17 -7
-12 -8 -20 -2 -20 5 0 10 5 10 11 0 8 5 8 15 -1 8 -7 22 -9 32 -5 10 4 37 10
61 12 23 2 76 22 118 43 41 22 81 37 89 34 8 -4 18 1 21 10 4 11 11 13 21 7
19 -10 104 5 116 22 6 9 10 9 13 0 3 -7 12 -9 20 -6 13 5 13 7 2 14 -9 6 -3 9
18 9 17 0 37 7 44 15 17 20 79 49 87 41 4 -3 -8 -21 -26 -40 -27 -27 -31 -38
-25 -61 l7 -28 23 26 c13 15 28 27 33 27 5 0 16 8 23 19 9 13 19 16 33 10 11
-4 14 -8 6 -8 -8 -1 -11 -4 -8 -8 4 -3 31 6 60 21 69 34 107 42 107 21 0 -13
7 -10 34 10 31 23 66 29 82 12 4 -4 18 -7 30 -7 18 0 22 -4 17 -17 -4 -10 -16
-25 -26 -34 -22 -17 -34 -93 -14 -86 7 2 13 16 15 31 2 15 13 37 24 48 18 18
21 18 37 4 16 -15 54 -5 38 10 -13 14 35 54 65 54 21 0 31 -6 38 -24 10 -27
77 -54 145 -59 11 -1 23 -6 26 -10 13 -18 91 -20 123 -4 17 9 52 25 78 36 26
12 50 25 53 31 3 5 14 10 23 10 9 1 51 30 92 65 41 36 80 65 86 65 6 0 23 12
38 27 20 20 29 24 38 15 9 -9 7 -16 -6 -31 -10 -11 -15 -24 -12 -29 3 -6 -1
-13 -10 -16 -10 -4 -14 -14 -11 -25 3 -14 1 -18 -10 -14 -8 3 -13 0 -11 -8 2
-8 -15 -19 -42 -27 -25 -8 -56 -21 -70 -29 -14 -8 -37 -19 -52 -24 -28 -11
-46 -38 -25 -40 32 -3 64 4 80 18 24 22 21 10 -8 -43 l-25 -44 28 0 c19 0 39
11 62 35 33 34 33 35 15 55 -10 11 -25 20 -34 20 -23 0 19 27 55 35 58 13 64
17 64 36 0 10 5 19 10 19 6 0 10 6 10 13 1 21 59 77 80 77 11 0 20 5 20 11 0
5 4 8 9 4 5 -3 12 -1 16 5 3 5 1 10 -4 10 -6 0 -11 7 -11 15 0 8 -6 15 -14 15
-7 0 -21 11 -30 25 -22 34 -41 31 -108 -15z"/>
<path d="M2438 3326 c-16 -8 -28 -12 -28 -9 0 4 -9 -3 -20 -15 -28 -29 -25
-32 16 -20 47 13 64 -2 35 -31 -12 -12 -30 -21 -40 -21 -11 0 -23 -5 -27 -11
-5 -9 1 -10 20 -5 14 3 26 3 26 -1 -1 -17 -47 -62 -72 -72 -30 -11 -36 -26
-14 -34 26 -10 116 51 116 80 0 7 6 13 13 13 8 0 22 9 32 20 18 20 18 20 33
-10 9 -19 20 -29 28 -26 8 3 14 1 14 -4 0 -6 6 -10 13 -10 12 0 66 -49 60 -53
-8 -6 12 -47 22 -47 8 0 16 -9 20 -19 3 -10 15 -21 25 -24 25 -6 17 -33 -17
-60 -13 -10 -23 -22 -23 -26 0 -15 88 6 115 27 16 12 30 21 32 19 7 -7 -16
-57 -27 -57 -18 0 -11 -32 12 -51 32 -28 44 -23 62 26 10 25 24 45 31 45 18 0
30 20 17 29 -5 3 -12 15 -14 25 -2 15 5 21 30 28 40 11 41 29 1 62 l-31 27
-37 -28 c-20 -15 -38 -30 -41 -35 -14 -18 -80 -13 -80 7 0 8 -4 15 -9 15 -5 0
-12 10 -15 23 -9 33 -208 237 -232 237 -10 0 -31 -7 -46 -14z m432 -316 c0 -5
-5 -10 -11 -10 -5 0 -7 5 -4 10 3 6 8 10 11 10 2 0 4 -4 4 -10z"/>
<path d="M3675 3126 c-27 -28 -50 -55 -50 -59 0 -5 -8 -14 -17 -21 -10 -7 -21
-27 -24 -44 -4 -20 -11 -29 -19 -25 -8 2 -27 -5 -43 -17 -32 -24 -52 -20 -52
9 0 10 -11 23 -25 29 -33 15 -38 15 -32 -2 7 -16 -52 -76 -75 -76 -23 0 -114
-46 -171 -87 -26 -18 -52 -31 -58 -27 -6 3 -18 -1 -27 -9 -21 -18 -53 -31 -69
-28 -7 1 -13 -2 -13 -8 0 -5 -13 -12 -29 -16 -16 -3 -43 -17 -62 -31 -18 -13
-43 -24 -55 -24 -12 0 -27 -7 -34 -15 -7 -8 -18 -15 -25 -15 -7 0 -15 -6 -18
-14 -4 -9 4 -13 26 -14 22 -1 44 10 73 34 23 19 48 34 56 34 7 0 24 7 37 16
21 15 128 58 176 71 19 6 19 5 -2 -19 -47 -51 -16 -45 62 12 28 20 58 39 68
43 9 3 17 11 17 16 0 5 10 11 23 15 13 3 40 17 61 31 27 18 42 23 50 16 8 -7
21 -5 41 5 35 18 105 35 105 25 0 -12 -45 -51 -59 -51 -6 0 -26 -7 -44 -17
l-32 -16 33 -14 c30 -12 35 -11 64 9 18 13 39 29 46 36 7 6 20 12 29 12 9 0
13 6 10 15 -4 8 -2 17 4 21 6 3 8 12 5 20 -15 38 55 -14 81 -61 7 -11 15 -16
19 -12 4 4 -7 35 -24 69 -32 64 -34 81 -7 58 20 -16 28 -8 27 27 0 15 6 52 14
82 22 87 10 91 -61 17z"/>
<path d="M1517 3093 c-12 -11 -8 -23 8 -23 8 0 15 -4 15 -9 0 -5 8 -12 18 -16
27 -11 132 -16 132 -6 0 13 -26 21 -66 21 -22 0 -40 7 -51 20 -17 20 -44 26
-56 13z"/>
<path d="M2983 3038 c2 -27 19 -42 28 -26 8 13 49 -7 49 -25 0 -16 100 -61
110 -50 11 11 -105 103 -130 103 -10 0 -22 5 -25 10 -12 19 -35 11 -32 -12z"/>
<path d="M368 3033 c7 -3 16 -2 19 1 4 3 -2 6 -13 5 -11 0 -14 -3 -6 -6z"/>
<path d="M773 3033 c-7 -3 -13 -11 -13 -18 0 -7 -9 -15 -21 -18 -12 -3 -18
-10 -14 -16 5 -10 -22 -16 -48 -12 -4 1 -10 -7 -14 -16 -4 -10 -11 -21 -16
-24 -5 -4 -5 -9 2 -13 6 -4 11 -3 11 2 0 6 9 8 20 5 10 -3 32 4 48 16 16 11
31 18 34 16 3 -3 11 13 18 35 14 42 13 50 -7 43z"/>
<path d="M876 3033 c-11 -11 -6 -23 9 -23 8 0 15 4 15 9 0 13 -16 22 -24 14z"/>
<path d="M1230 3030 c-13 -8 -13 -10 2 -10 9 0 20 5 23 10 8 13 -5 13 -25 0z"/>
<path d="M2342 3009 c-10 -16 -10 -24 -1 -35 20 -24 46 -16 58 17 14 41 15 39
-17 39 -17 0 -32 -8 -40 -21z"/>
<path d="M2543 3015 c-3 -9 -3 -18 0 -21 9 -9 27 6 27 22 0 19 -19 18 -27 -1z"/>
<path d="M1525 2970 c-27 -11 -80 -68 -72 -77 4 -3 15 1 25 10 10 10 23 17 29
17 6 0 16 7 23 15 14 16 50 21 50 6 0 -5 9 -7 20 -4 11 3 20 1 20 -4 0 -5 41
-9 93 -8 96 1 147 -10 147 -33 0 -7 4 -11 9 -7 5 3 12 1 16 -5 3 -5 17 -10 29
-10 16 0 26 -7 30 -22 4 -17 8 -20 16 -12 8 8 30 7 78 -3 37 -8 97 -13 133
-11 65 3 67 2 154 -55 81 -53 126 -69 139 -49 3 5 -17 16 -45 26 -27 10 -49
22 -49 26 0 5 -10 12 -22 16 -13 4 -25 10 -28 13 -3 4 -18 15 -35 26 -24 15
-51 19 -130 21 -55 1 -107 4 -115 7 -8 3 -32 8 -54 12 -44 7 -107 44 -145 85
-23 26 -31 28 -73 23 -27 -3 -48 -9 -48 -14 0 -12 -104 -2 -108 10 -4 13 -58
14 -87 1z"/>
<path d="M1512 2908 c-27 -14 -41 -27 -37 -36 3 -9 -1 -12 -13 -8 -10 3 -29
-4 -47 -19 -21 -17 -25 -24 -14 -25 30 0 84 23 117 52 18 15 42 28 53 28 12 0
19 5 17 13 -7 20 -30 18 -76 -5z"/>
<path d="M3182 2918 c-8 -8 -8 -17 -1 -30 12 -22 29 -15 29 12 0 24 -13 33
-28 18z"/>
<path d="M1634 2891 c-10 -10 -3 -23 11 -17 8 3 24 2 34 -2 19 -7 18 -9 -7
-46 -27 -39 -98 -74 -127 -62 -15 5 -32 -11 -33 -34 -1 -8 -4 -27 -8 -43 -5
-22 -4 -26 10 -21 9 3 16 10 16 15 0 11 51 66 63 68 8 1 58 24 105 49 18 10
43 30 55 46 l22 27 43 -41 c30 -28 49 -39 62 -35 12 4 27 -3 43 -19 13 -13 33
-23 43 -23 11 1 20 -6 22 -18 7 -35 47 -66 77 -61 23 4 90 47 105 67 3 3 21 8
40 11 29 4 39 1 57 -21 13 -14 23 -30 23 -35 0 -4 6 -6 13 -3 8 3 28 -8 45
-25 l32 -29 68 21 c37 12 77 27 89 32 17 8 28 7 45 -4 13 -8 37 -18 53 -22 17
-4 38 -9 48 -12 18 -6 18 -4 2 19 -20 32 -115 80 -130 67 -20 -17 -124 -70
-136 -70 -6 0 -28 17 -49 39 -21 21 -55 44 -76 51 -22 7 -43 19 -47 27 -6 10
-18 12 -45 7 -20 -4 -41 -7 -47 -6 -5 1 -37 3 -69 6 -123 10 -149 19 -246 82
-30 20 -46 22 -118 21 -46 -1 -86 -4 -88 -6z"/>
<path d="M1386 2868 c-10 -6 -27 -19 -37 -29 -22 -22 -104 -65 -94 -50 8 14 4
14 -38 -4 -19 -8 -37 -21 -40 -30 -7 -18 4 -20 20 -4 8 8 17 8 29 1 14 -8 30
-4 66 14 26 13 55 24 65 24 10 0 25 5 33 10 12 8 11 11 -8 16 l-24 7 29 23
c30 24 30 39 -1 22z"/>
<path d="M3465 2810 c-3 -5 -2 -10 4 -10 5 0 13 5 16 10 3 6 2 10 -4 10 -5 0
-13 -4 -16 -10z"/>
<path d="M2520 2649 c0 -5 5 -7 10 -4 6 3 10 8 10 11 0 2 -4 4 -10 4 -5 0 -10
-5 -10 -11z"/>
<path d="M275 2611 c-3 -12 -4 -25 -1 -30 6 -10 56 -12 71 -3 17 10 44 9 38
-1 -4 -6 0 -8 10 -4 9 3 51 9 94 12 61 5 75 4 63 -5 -12 -10 -12 -11 5 -5 42
15 58 18 53 9 -4 -5 29 -10 73 -11 53 -1 79 3 76 10 -1 5 -10 12 -18 13 -77
15 -89 16 -89 4 0 -9 -4 -10 -13 -2 -7 6 -81 13 -169 17 -86 3 -163 8 -171 11
-10 3 -18 -2 -22 -15z"/>
<path d="M1040 2612 c-38 -1 -69 -8 -75 -16 -5 -7 -17 -15 -25 -18 -8 -3 18
-5 58 -5 40 0 75 3 77 7 2 4 37 6 77 4 69 -3 122 -5 468 -21 127 -6 208 -6
415 0 28 1 79 -2 115 -6 123 -14 382 -18 396 -6 20 17 18 23 -17 38 -24 10
-39 11 -75 2 -33 -9 -56 -9 -86 0 -27 7 -73 8 -127 3 -47 -4 -111 -6 -141 -5
-30 2 -120 5 -200 7 -80 2 -206 6 -280 9 -191 7 -503 11 -580 7z"/>
<path d="M765 2600 c3 -5 17 -10 31 -10 13 0 24 -4 24 -10 0 -5 16 -10 35 -10
28 0 33 3 29 18 -5 16 -5 16 9 0 19 -24 26 -23 20 2 -5 18 -14 20 -80 20 -47
0 -72 -4 -68 -10z"/>
<path d="M2577 2583 c-4 -3 -7 -15 -7 -25 0 -16 7 -18 58 -16 66 3 77 22 15
26 -24 2 -43 7 -43 13 0 10 -14 12 -23 2z"/>
<path d="M2980 2575 c0 -8 -4 -15 -10 -15 -5 0 -10 -4 -10 -10 0 -19 17 -10
28 15 7 15 8 25 2 25 -6 0 -10 -7 -10 -15z"/>
<path d="M2910 2561 c0 -19 23 -35 34 -24 14 15 5 43 -14 43 -13 0 -20 -7 -20
-19z"/>
<path d="M2737 2564 c-15 -16 -5 -24 29 -24 24 0 34 4 32 13 -5 13 -50 22 -61
11z"/>
<path d="M2445 2415 c-11 -8 -71 -18 -140 -24 -155 -13 -163 -14 -182 -34 -14
-14 -15 -22 -4 -57 14 -46 13 -179 -2 -197 -6 -9 -5 -13 3 -13 8 0 11 -10 8
-30 -3 -16 -1 -30 3 -30 4 0 3 -16 -1 -36 -5 -20 -6 -42 -4 -48 2 -6 -4 -36
-13 -66 -14 -43 -25 -58 -48 -69 -16 -7 -41 -24 -55 -36 -19 -17 -38 -22 -82
-23 -32 0 -60 4 -63 9 -4 5 -14 9 -23 10 -9 0 -29 15 -44 33 -27 32 -28 41
-39 202 -12 182 -13 189 -29 279 -6 33 -9 72 -6 88 5 24 3 27 -23 27 -16 0
-43 -6 -59 -13 -21 -9 -52 -11 -94 -7 -35 4 -69 5 -75 2 -8 -2 -13 -22 -13
-50 0 -28 -6 -52 -17 -64 -15 -17 -15 -20 6 -39 15 -14 20 -27 15 -38 -4 -9
-8 -89 -10 -178 -3 -165 5 -223 32 -223 8 0 11 6 8 15 -4 8 -1 15 5 15 6 0 11
6 11 14 0 19 47 56 71 56 28 0 23 -29 -6 -36 -38 -9 -50 -30 -26 -46 19 -13
19 -14 -7 -26 -15 -7 -36 -19 -47 -28 l-20 -15 20 -16 c14 -11 16 -17 8 -20
-21 -8 -15 -28 17 -51 16 -13 29 -26 28 -30 -10 -35 73 -88 212 -136 66 -23
89 -25 180 -22 58 1 115 8 127 14 12 7 30 12 40 12 10 0 29 9 43 20 14 11 34
20 44 20 20 0 196 172 196 190 0 6 11 28 25 48 29 42 33 67 9 58 -8 -3 -12 -2
-9 3 3 6 -3 15 -12 21 -15 8 -13 9 10 4 27 -6 27 -6 27 50 0 31 -5 56 -10 56
-6 0 -5 8 2 20 11 17 10 22 -1 29 -10 6 -10 10 -1 16 7 4 10 33 9 80 -1 39 1
77 5 83 4 7 2 30 -5 52 -16 54 2 145 31 153 22 6 28 37 8 36 -7 0 -22 -6 -33
-14z m-95 -45 c0 -12 -8 -12 -35 0 -18 8 -17 9 8 9 15 1 27 -3 27 -9z m-700
-20 c0 -13 -11 -13 -30 0 -12 8 -11 10 8 10 12 0 22 -4 22 -10z m710 -60 c-8
-5 -17 -7 -21 -4 -4 2 -18 0 -32 -5 -17 -7 -30 -6 -42 3 -15 10 -7 13 46 14
42 1 59 -2 49 -8z m-725 -36 l30 -12 -32 -1 c-17 -1 -34 3 -37 7 -3 5 -20 9
-37 10 -17 0 -37 6 -42 11 -15 15 77 3 118 -15z m708 6 c-18 -4 -40 -13 -48
-20 -10 -8 -15 -9 -15 -2 0 17 32 31 65 31 l30 -1 -32 -8z m-743 -29 c0 -5 9
-13 21 -16 39 -13 11 -16 -32 -4 -37 10 -41 13 -24 20 27 11 35 11 35 0z m739
-15 c-10 -9 -79 -14 -79 -5 0 5 19 9 42 9 23 0 39 -2 37 -4z m-642 -12 c-3 -3
-12 -4 -19 -1 -8 3 -5 6 6 6 11 1 17 -2 13 -5z m702 -23 c11 -7 9 -12 -10 -22
-28 -15 -42 -18 -49 -8 -3 4 -17 10 -31 14 -21 5 -27 2 -32 -14 -3 -12 -11
-21 -17 -21 -9 0 -8 6 2 23 10 14 30 24 54 28 60 9 68 9 83 0z m-769 -11 c0
-13 -20 -13 -40 0 -12 8 -9 10 13 10 15 0 27 -4 27 -10z m3 -56 c-3 -9 -14
-10 -36 -3 -39 11 -37 11 -37 -1 0 -5 8 -10 18 -10 15 0 59 -38 50 -44 -2 -1
-16 1 -33 5 -21 5 -24 7 -10 9 14 1 10 5 -13 11 -39 12 -40 38 -2 55 28 12 71
-3 63 -22z m763 9 c-9 -10 -76 -21 -76 -12 0 10 61 28 73 22 5 -3 6 -7 3 -10z
m-166 -23 c0 -5 -4 -10 -9 -10 -6 0 -13 5 -16 10 -3 6 1 10 9 10 9 0 16 -4 16
-10z m112 -61 c6 -4 -1 -8 -15 -11 -18 -3 -24 0 -23 11 1 21 20 34 25 18 2 -7
8 -15 13 -18z m-713 -14 c3 -4 -5 -15 -19 -25 -26 -21 -70 -27 -70 -10 0 5 7
7 15 4 8 -4 15 -1 15 5 0 6 -7 11 -15 11 -8 0 -15 7 -15 15 0 13 9 15 41 11
23 -3 44 -8 48 -11z m744 -22 c-13 -2 -33 -2 -45 0 -13 2 -3 4 22 4 25 0 35
-2 23 -4z m-168 -13 c-3 -5 -11 -10 -16 -10 -6 0 -7 5 -4 10 3 6 11 10 16 10
6 0 7 -4 4 -10z m160 -10 c-3 -5 -14 -10 -23 -10 -15 0 -15 2 -2 10 20 13 33
13 25 0z m-788 -46 c-3 -3 -12 -4 -19 -1 -8 3 -5 6 6 6 11 1 17 -2 13 -5z
m738 -4 c4 -6 -6 -10 -22 -9 -25 0 -26 1 -8 9 11 5 21 9 22 9 1 1 5 -3 8 -9z
m-70 -20 c-27 -12 -43 -12 -25 0 8 5 22 9 30 9 10 0 8 -3 -5 -9z m87 -62 c-7
-7 -12 -8 -12 -2 0 6 3 14 7 17 3 4 9 5 12 2 2 -3 -1 -11 -7 -17z m39 3 c-7
-5 -10 -14 -7 -20 4 -6 3 -11 -3 -11 -14 0 -23 18 -16 30 3 6 14 10 23 10 14
0 14 -2 3 -9z m-165 -27 c-4 -9 -9 -15 -11 -12 -3 3 -3 13 1 22 4 9 9 15 11
12 3 -3 3 -13 -1 -22z m-566 -28 c0 -3 -4 -8 -10 -11 -5 -3 -10 -1 -10 4 0 6
5 11 10 11 6 0 10 -2 10 -4z m559 -48 c1 -5 -3 -8 -9 -8 -5 0 -10 7 -10 15 0
8 -6 15 -12 15 -9 0 -8 3 2 10 14 9 27 -6 29 -32z m-569 -28 c-8 -6 -24 -9
-35 -9 -15 0 -13 4 10 14 32 14 49 10 25 -5z m240 -4 c0 -2 -7 -9 -15 -16 -12
-10 -15 -10 -15 4 0 9 7 16 15 16 8 0 15 -2 15 -4z m35 -91 c15 -13 13 -12
-12 1 -32 18 -34 17 -75 -4 -45 -23 -42 -24 32 -24 24 0 27 -1 12 -5 -20 -4
-21 -7 -10 -20 11 -14 10 -15 -9 -9 -12 4 -24 2 -28 -4 -10 -16 -25 -12 -18 5
3 9 -2 22 -13 29 -17 13 -16 14 4 25 13 7 20 16 17 21 -3 5 4 15 16 23 19 14
23 13 42 -3 12 -11 31 -26 42 -35z m-235 26 c0 -12 -20 -25 -27 -18 -7 7 6 27
18 27 5 0 9 -4 9 -9z m527 -7 c-3 -3 -12 -4 -19 -1 -8 3 -5 6 6 6 11 1 17 -2
13 -5z m-211 -49 c15 -12 16 -16 5 -24 -8 -5 -10 -14 -6 -22 6 -9 3 -11 -9 -6
-10 4 -23 7 -29 7 -7 0 -6 4 3 10 13 9 13 10 0 11 -8 1 -21 1 -29 0 -7 -2 -10
2 -6 8 3 6 13 11 21 11 8 0 14 5 14 10 0 14 13 12 36 -5z m181 -17 c-3 -8 -6
-5 -6 6 -1 11 2 17 5 13 3 -3 4 -12 1 -19z m-291 -60 c5 -8 2 -9 -9 -5 -9 3
-19 2 -22 -3 -4 -6 -1 -10 4 -10 6 0 11 -4 11 -10 0 -13 -27 -13 -35 -1 -6 10
21 41 35 41 5 0 12 -5 16 -12z m169 -18 c3 -5 1 -10 -4 -10 -6 0 -11 5 -11 10
0 6 2 10 4 10 3 0 8 -4 11 -10z"/>
<path d="M2566 2396 c4 -12 7 -63 7 -114 l-1 -94 36 7 c52 10 163 14 410 16
165 2 217 5 227 15 19 20 28 17 22 -6 -6 -23 39 -50 86 -50 25 0 28 2 17 15
-9 11 -9 15 -1 15 7 0 9 5 6 11 -4 6 2 5 14 -3 12 -7 17 -14 11 -16 -16 -6
-12 -20 8 -25 15 -4 14 -6 -4 -12 -15 -5 -20 -14 -18 -31 1 -16 -3 -24 -13
-24 -11 0 -13 4 -6 13 6 6 10 19 10 27 0 13 -13 15 -64 14 -35 -1 -66 -4 -70
-8 -3 -3 1 -6 10 -6 12 0 17 -9 17 -30 0 -26 -4 -30 -26 -30 -30 0 -95 -37
-199 -114 -38 -28 -104 -73 -146 -101 -42 -27 -107 -71 -145 -96 -38 -25 -88
-56 -111 -69 -24 -13 -43 -27 -43 -31 0 -4 -9 -9 -20 -12 -17 -4 -20 -14 -20
-60 0 -31 -3 -62 -6 -70 -3 -9 3 -24 14 -35 18 -18 40 -19 478 -19 304 -1 463
3 472 10 9 7 25 6 54 -3 41 -12 43 -11 66 15 20 24 22 36 20 94 -2 52 -6 65
-18 63 -8 -2 -91 -6 -185 -9 -93 -3 -176 -9 -184 -13 -8 -4 -26 -4 -40 0 -14
4 -42 6 -61 5 -78 -6 -231 -7 -237 -2 -10 10 74 84 122 107 62 30 165 99 165
111 0 5 7 9 15 9 16 0 111 47 155 78 14 9 43 28 63 40 20 13 37 28 37 32 0 5
20 21 45 37 25 15 45 31 45 35 0 4 17 19 39 33 42 28 39 19 57 195 8 70 -7 86
-63 74 -36 -7 -431 -6 -443 1 -3 2 -71 6 -150 10 -80 4 -149 9 -153 12 -5 3
-76 6 -159 7 -147 2 -149 2 -142 -18z m624 -45 c0 -5 -9 -11 -20 -14 -11 -3
-20 -9 -20 -14 0 -13 59 -36 80 -30 11 3 22 2 25 -3 3 -4 -12 -10 -33 -12 -20
-3 -38 -1 -40 4 -5 11 -42 10 -42 -2 0 -5 7 -7 15 -4 8 4 15 1 15 -5 0 -6 -11
-11 -25 -11 -18 0 -25 5 -25 19 0 11 5 23 11 26 6 4 8 13 5 20 -4 11 11 21 52
34 1 1 2 -3 2 -8z m-335 -11 c-3 -5 -11 -10 -16 -10 -6 0 -7 5 -4 10 3 6 11
10 16 10 6 0 7 -4 4 -10z m487 -10 c4 -3 -4 -16 -17 -28 l-24 -23 10 33 c5 18
9 35 9 37 0 2 3 0 8 -5 4 -5 10 -11 14 -14z m-114 -21 c-21 -14 -26 -10 -21
11 4 16 8 18 20 9 11 -10 11 -14 1 -20z m-598 -20 c0 -11 7 -19 16 -19 8 0 12
-4 9 -10 -4 -6 6 -10 22 -10 27 -1 27 -1 9 -15 -11 -8 -31 -14 -45 -14 -25 1
-25 2 4 9 23 6 25 8 8 9 -15 1 -23 10 -28 32 -5 23 -9 28 -16 18 -6 -10 -9 -6
-9 15 0 24 2 27 15 16 8 -7 15 -21 15 -31z m415 31 c-3 -5 -18 -10 -33 -9
l-27 1 25 8 c35 11 42 11 35 0z m401 -17 c-10 -10 -19 5 -10 18 6 11 8 11 12
0 2 -7 1 -15 -2 -18z m-86 -3 c0 -5 -8 -10 -17 -10 -15 0 -16 2 -3 10 19 12
20 12 20 0z m-212 -67 c-10 -2 -26 -2 -35 0 -10 3 -2 5 17 5 19 0 27 -2 18 -5z
m347 -3 c3 -5 1 -10 -4 -10 -6 0 -11 5 -11 10 0 6 2 10 4 10 3 0 8 -4 11 -10z
m-35 -22 c0 -6 -10 -8 -22 -4 -13 3 -29 6 -36 6 -7 0 -11 4 -8 8 7 12 66 2 66
-10z m110 -8 c0 -5 -5 -10 -11 -10 -5 0 -7 5 -4 10 3 6 8 10 11 10 2 0 4 -4 4
-10z m77 -6 c-3 -3 -12 -4 -19 -1 -8 3 -5 6 6 6 11 1 17 -2 13 -5z m-147 -64
c12 -8 11 -10 -7 -10 -13 0 -23 5 -23 10 0 13 11 13 30 0z m-193 -36 c-3 -3
-12 -4 -19 -1 -8 3 -5 6 6 6 11 1 17 -2 13 -5z m-376 -334 c-13 -11 -31 -20
-40 -20 -12 0 -10 5 9 20 34 27 63 26 31 0z m-136 -70 c3 -5 1 -10 -4 -10 -6
0 -11 5 -11 10 0 6 2 10 4 10 3 0 8 -4 11 -10z m-38 -25 c0 -8 -4 -12 -9 -9
-5 3 -6 10 -3 15 9 13 12 11 12 -6z m-41 -10 c-11 -8 -22 -12 -25 -9 -6 6 19
24 34 24 6 -1 1 -7 -9 -15z m214 -65 c0 -5 -7 -10 -16 -10 -8 0 -12 5 -9 10 3
6 10 10 16 10 5 0 9 -4 9 -10z m8 -28 c8 -6 1 -13 -23 -25 -20 -10 -37 -12
-40 -7 -3 6 3 10 14 10 12 0 21 7 21 15 0 17 9 19 28 7z m127 -22 c-3 -5 -11
-10 -16 -10 -6 0 -7 5 -4 10 3 6 11 10 16 10 6 0 7 -4 4 -10z"/>
<path d="M326 2381 c-4 -5 -8 -35 -11 -66 -4 -55 -4 -55 14 -34 12 15 18 17
18 8 1 -8 4 -33 8 -56 5 -29 4 -43 -3 -43 -6 0 -14 5 -17 10 -9 15 -25 12 -25
-5 0 -16 2 -17 40 -20 14 -2 33 -6 43 -10 10 -4 17 -3 17 4 0 6 9 11 20 11 11
0 20 -4 20 -9 0 -6 44 -8 110 -5 64 3 117 1 128 -5 13 -7 27 -6 46 4 14 8 25
11 22 7 -2 -4 36 -7 85 -7 65 0 92 -4 98 -14 6 -9 11 -10 15 -2 11 16 26 13
20 -4 -4 -8 -10 -15 -15 -15 -5 0 -30 -16 -55 -36 -26 -19 -60 -38 -75 -41
-16 -3 -29 -12 -29 -19 0 -8 -3 -13 -7 -13 -27 4 -47 -7 -102 -58 -35 -31 -80
-68 -101 -82 -21 -14 -58 -42 -82 -62 -24 -20 -59 -45 -78 -55 -19 -10 -43
-29 -53 -41 -10 -13 -27 -23 -37 -23 -29 0 -56 -49 -59 -105 -1 -27 -4 -58 -7
-69 -4 -10 2 -36 12 -58 l18 -40 55 8 c31 4 119 9 196 11 77 1 148 3 158 4 9
0 17 6 17 12 0 8 4 7 9 -2 10 -16 81 -26 81 -11 0 5 13 4 30 -2 17 -5 37 -8
44 -5 8 3 27 2 42 -2 15 -4 68 -1 118 7 142 22 210 17 248 -16 16 -13 18 -13
24 2 3 9 3 31 0 49 -4 17 -6 39 -5 47 5 63 2 121 -6 129 -10 10 -74 12 -400
12 -151 0 -205 2 -205 6 0 1 124 97 189 145 20 15 41 27 48 28 7 0 27 13 45
29 18 15 74 55 123 89 50 33 114 83 143 109 l54 48 -1 80 c-1 77 -5 124 -11
135 -2 3 -3 12 -4 20 -1 12 -49 15 -325 16 -196 2 -332 -1 -343 -7 -10 -5 -18
-6 -18 -2 0 4 -29 8 -65 7 -36 0 -65 2 -65 5 0 10 -148 12 -154 2z m456 -38
c-6 -2 -10 -9 -6 -14 3 -5 -2 -9 -12 -9 -13 0 -14 3 -4 15 7 8 18 15 24 14 7
0 6 -2 -2 -6z m-92 -22 c13 -1 13 -2 0 -11 -8 -5 -39 -10 -67 -10 -29 0 -53
-4 -53 -10 0 -16 -16 -12 -41 11 l-24 20 25 -4 c14 -3 34 -1 45 3 11 5 38 7
60 5 22 -2 47 -4 55 -4z m600 -9 c0 -13 -12 -22 -22 -16 -10 6 -1 24 13 24 5
0 9 -4 9 -8z m-227 -19 c-7 -2 -19 -2 -25 0 -7 3 -2 5 12 5 14 0 19 -2 13 -5z
m63 -8 c10 -8 14 -15 7 -15 -19 0 -43 11 -43 21 0 13 14 11 36 -6z m-246 1 c0
-2 -11 -6 -25 -8 -13 -3 -22 -1 -19 3 5 9 44 13 44 5z m385 -6 c3 -5 1 -10 -4
-10 -6 0 -11 5 -11 10 0 6 2 10 4 10 3 0 8 -4 11 -10z m-195 -14 c0 -3 -4 -8
-10 -11 -5 -3 -10 -1 -10 4 0 6 5 11 10 11 6 0 10 -2 10 -4z m-276 -21 c-4 -8
-11 -15 -16 -15 -6 0 -5 6 2 15 7 8 14 15 16 15 2 0 1 -7 -2 -15z m474 -7 c-2
-6 -10 -13 -16 -14 -9 -2 -9 -1 -1 3 8 4 7 8 -2 14 -11 7 -10 9 4 9 10 0 17
-5 15 -12z m-185 -10 c-13 -6 -23 -15 -23 -20 0 -4 -5 -8 -12 -8 -6 0 -3 9 7
20 10 11 25 20 34 19 11 0 9 -4 -6 -11z m87 -18 c13 -8 13 -10 -2 -10 -9 0
-20 5 -23 10 -8 13 5 13 25 0z m-19 -28 c-7 -2 -18 1 -23 6 -8 8 -4 9 13 5 13
-4 18 -8 10 -11z m-60 -22 c5 0 1 -9 -10 -21 -11 -12 -17 -28 -14 -37 4 -10 2
-13 -5 -8 -7 4 -12 14 -12 22 0 11 -4 12 -19 5 -24 -13 -42 6 -31 34 9 24 50
36 68 18 7 -7 18 -13 23 -13z m89 -20 c24 -8 24 -8 -7 -9 -17 -1 -35 4 -38 9
-7 11 9 11 45 0z m-170 -61 c0 -4 -9 -7 -20 -6 -11 1 -20 7 -20 13 0 7 8 10
20 7 11 -3 20 -9 20 -14z m135 11 c3 -5 2 -10 -4 -10 -5 0 -13 5 -16 10 -3 6
-2 10 4 10 5 0 13 -4 16 -10z m28 -27 c-7 -2 -19 -2 -25 0 -7 3 -2 5 12 5 14
0 19 -2 13 -5z m-173 -33 c14 -9 11 -11 -15 -10 -3 0 -19 -7 -36 -16 -43 -22
-49 -10 -8 15 39 24 39 24 59 11z m-77 -73 c-5 -8 -8 -8 -10 0 -3 7 -12 9 -21
6 -14 -4 -14 -3 -3 5 17 12 43 4 34 -11z m-18 -17 c3 -5 1 -10 -4 -10 -6 0
-11 5 -11 10 0 6 2 10 4 10 3 0 8 -4 11 -10z m-185 -135 c0 -10 -10 -15 -32
-15 -34 0 -29 14 7 23 11 3 21 5 23 6 1 0 2 -6 2 -14z m10 -45 c-8 -5 -22 -10
-31 -10 -9 0 -22 -7 -29 -15 -7 -9 -15 -13 -18 -10 -10 9 43 44 68 45 20 0 22
-2 10 -10z m-80 -89 c0 -5 8 -12 18 -14 11 -3 7 -5 -10 -6 -14 0 -35 -4 -45
-8 -17 -6 -17 -5 1 15 20 23 36 29 36 13z m-150 -5 c0 -2 -9 -6 -20 -9 -11 -3
-18 -1 -14 4 5 9 34 13 34 5z m35 -16 c3 -5 1 -10 -4 -10 -6 0 -11 5 -11 10 0
6 2 10 4 10 3 0 8 -4 11 -10z m672 -6 c-3 -3 -12 -4 -19 -1 -8 3 -5 6 6 6 11
1 17 -2 13 -5z m-442 -27 c-11 -6 -24 -12 -28 -12 -4 0 -11 -5 -15 -10 -8 -12
-58 -35 -75 -35 -7 0 7 9 31 20 23 10 41 25 40 32 -2 6 11 15 27 18 37 8 46 2
20 -13z m424 6 c39 -23 40 -41 2 -35 -29 4 -52 31 -28 33 7 0 3 4 -8 9 -11 5
-15 9 -8 9 6 1 25 -7 42 -16z m-265 -8 c-7 -16 -54 -21 -54 -6 0 5 12 12 28
14 15 2 28 5 29 6 1 0 0 -6 -3 -14z m116 -5 c12 -7 12 -12 2 -22 -10 -10 -15
-10 -22 2 -19 29 -9 39 20 20z m240 -30 c6 -11 8 -20 6 -20 -3 0 -10 9 -16 20
-6 11 -8 20 -6 20 3 0 10 -9 16 -20z m-640 -52 c0 -5 -13 -8 -30 -8 -16 0 -30
4 -30 9 0 4 13 8 30 7 16 -1 30 -4 30 -8z m65 2 c3 -5 -3 -10 -14 -10 -11 0
-23 5 -26 10 -3 6 3 10 14 10 11 0 23 -4 26 -10z m495 -34 c0 -2 -9 -6 -20 -9
-11 -3 -18 -1 -14 4 5 9 34 13 34 5z"/>
<path d="M1022 2161 c-11 -7 -11 -9 1 -14 9 -3 18 1 21 9 6 16 -2 18 -22 5z"/>
<path d="M310 2230 c0 -5 5 -10 10 -10 6 0 10 5 10 10 0 6 -4 10 -10 10 -5 0
-10 -4 -10 -10z"/>
<path d="M3240 2100 c0 -5 5 -10 10 -10 6 0 10 5 10 10 0 6 -4 10 -10 10 -5 0
-10 -4 -10 -10z"/>
<path d="M1296 1339 c-10 -7 -72 -11 -142 -11 -84 -1 -127 -5 -134 -13 -6 -8
-7 -31 -1 -66 6 -30 9 -97 9 -149 -1 -92 4 -139 17 -160 3 -5 1 -10 -4 -10 -7
0 -11 -39 -11 -110 0 -99 -2 -113 -22 -137 -42 -50 -92 -93 -109 -93 -10 0
-19 -5 -21 -12 -5 -13 -33 -18 -128 -22 -56 -2 -68 1 -86 20 -15 15 -30 21
-50 18 -16 -2 -23 -1 -16 2 17 8 15 24 -3 24 -11 0 -14 7 -9 26 5 20 2 26 -15
31 -13 3 -21 13 -21 27 0 12 -6 34 -12 48 -12 25 -14 26 -108 24 -101 -2 -122
-8 -114 -30 3 -8 1 -17 -5 -21 -7 -4 -11 4 -11 19 0 14 -4 26 -10 26 -5 0 -10
-16 -10 -35 0 -24 5 -35 15 -35 17 0 21 -16 5 -22 -13 -4 16 -125 35 -144 8
-9 15 -12 15 -8 0 4 9 -1 19 -10 16 -15 18 -22 8 -36 -17 -29 6 -61 70 -95 40
-21 57 -26 60 -17 3 6 11 12 19 12 8 0 11 -6 7 -17 -4 -9 -2 -14 4 -10 5 3 23
-1 39 -10 57 -30 322 -37 353 -9 10 9 32 16 49 16 19 0 40 8 53 21 12 12 27
18 38 14 46 -14 146 86 202 201 19 40 21 53 12 85 -8 29 -7 43 3 57 21 31 32
135 34 329 0 100 2 207 4 237 4 59 2 62 -28 45z m-148 -100 c2 6 11 11 20 11
13 0 12 -3 -4 -15 -25 -19 -50 -19 -58 0 -5 13 -2 14 16 4 17 -9 23 -9 26 0z
m42 -79 c31 -6 50 -5 60 3 13 10 13 10 1 -5 -7 -10 -23 -18 -34 -18 -11 0 -29
-8 -40 -17 -19 -17 -20 -17 -15 4 5 17 0 24 -21 32 -33 12 -10 13 49 1z m61
-59 c-8 -5 -20 -7 -28 -4 -21 8 -15 13 15 13 20 0 23 -3 13 -9z m-124 -7 c-3
-3 -12 -4 -19 -1 -8 3 -5 6 6 6 11 1 17 -2 13 -5z m8 -24 c-3 -5 -14 -10 -23
-9 -14 0 -13 2 3 9 27 11 27 11 20 0z m78 3 c-7 -2 -19 -2 -25 0 -7 3 -2 5 12
5 14 0 19 -2 13 -5z m-17 -30 c-1 -18 -31 -42 -51 -42 -5 0 -2 4 8 10 9 5 17
15 17 21 0 6 -7 5 -17 -3 -13 -11 -15 -11 -9 -1 4 7 18 17 30 22 11 5 22 9 22
9 1 1 1 -7 0 -16z m-22 -64 c-3 -5 -10 -7 -15 -4 -5 4 -9 1 -9 -4 0 -6 -7 -11
-15 -11 -30 0 -15 27 15 28 17 0 28 -4 24 -9z m-84 -108 c0 -5 -7 -11 -15 -15
-9 -3 -15 0 -15 9 0 8 7 15 15 15 8 0 15 -4 15 -9z m60 -31 c0 -5 -5 -10 -11
-10 -5 0 -7 5 -4 10 3 6 8 10 11 10 2 0 4 -4 4 -10z m-48 -93 c-12 -13 -19
-27 -15 -30 10 -11 -10 -8 -27 3 -13 8 -11 11 8 16 12 4 22 10 22 14 0 5 -10
11 -22 13 -14 2 -7 5 16 6 l39 1 -21 -23z m51 -14 c-7 -2 -13 -11 -13 -18 0
-17 -27 -27 -36 -14 -3 6 -4 12 -3 13 13 10 46 25 54 25 6 0 4 -3 -2 -6z
m-796 -32 c0 -11 -5 -17 -9 -15 -11 7 -10 34 1 34 6 0 9 -9 8 -19z m733 -51
c-20 -13 -33 -13 -25 0 3 6 14 10 23 10 15 0 15 -2 2 -10z m-14 -20 c37 -14
18 -29 -29 -23 -34 5 -36 7 -20 19 22 16 17 16 49 4z m-621 -10 c15 -6 9 -9
-25 -9 -34 0 -40 3 -25 9 11 5 22 9 25 9 3 0 14 -4 25 -9z m49 -18 c3 -5 -1
-9 -9 -9 -8 0 -12 4 -9 9 3 4 7 8 9 8 2 0 6 -4 9 -8z m-24 -87 c0 -8 -4 -15
-10 -15 -5 0 -7 7 -4 15 4 8 8 15 10 15 2 0 4 -7 4 -15z m602 -20 c0 -5 -5
-11 -10 -13 -5 -1 -9 4 -9 13 0 9 4 14 9 13 5 -2 10 -8 10 -13z m-51 -13 c-10
-3 -7 -8 10 -18 22 -12 22 -13 4 -13 -11 0 -33 6 -50 15 -22 10 -24 13 -8 10
12 -2 28 2 34 10 7 8 15 12 18 8 3 -4 0 -9 -8 -12z m-312 -8 c10 -9 -45 -3
-59 6 -11 7 -5 8 20 4 19 -4 37 -8 39 -10z m-54 -14 c3 -6 -1 -7 -9 -4 -18 7
-21 14 -7 14 6 0 13 -4 16 -10z m80 0 c-3 -5 -12 -10 -18 -10 -7 0 -6 4 3 10
19 12 23 12 15 0z m-175 -36 c0 -2 -9 -4 -20 -4 -11 0 -20 4 -20 9 0 5 9 7 20
4 11 -3 20 -7 20 -9z m100 -24 c0 -5 -5 -10 -11 -10 -5 0 -7 5 -4 10 3 6 8 10
11 10 2 0 4 -4 4 -10z"/>
<path d="M1653 1328 c-29 -5 -53 -13 -53 -17 0 -4 -25 -4 -56 -1 -52 6 -56 5
-69 -19 -8 -17 -13 -66 -13 -134 0 -60 -3 -125 -6 -145 -13 -89 -18 -224 -8
-218 6 3 13 2 16 -3 4 -5 -4 -11 -16 -13 -13 -2 -22 -9 -21 -15 2 -7 -3 -45
-11 -85 -14 -71 -14 -240 -1 -336 5 -33 10 -42 21 -38 9 3 22 -1 30 -9 9 -8
21 -15 27 -15 7 0 4 7 -6 14 -16 13 -13 14 25 9 57 -8 162 -5 218 5 53 10 75
6 61 -12 -7 -8 50 -12 230 -13 197 -2 241 1 253 13 8 7 30 14 50 14 19 0 38 5
41 10 4 6 9 57 11 114 l5 104 -63 5 c-35 3 -92 6 -127 7 -36 1 -68 3 -72 5 -3
3 -34 7 -68 9 -43 4 -61 1 -61 -7 0 -8 -3 -8 -9 1 -6 10 -46 14 -164 15 -98 1
-156 6 -155 12 3 17 -14 79 -24 92 -7 9 -7 22 1 40 l11 28 288 -1 c158 0 326
-4 374 -8 85 -8 87 -8 81 13 -3 12 -1 27 5 34 10 12 14 137 5 171 -5 17 -12
18 -67 12 -33 -4 -65 -7 -71 -7 -5 -1 -125 2 -266 5 -165 5 -265 3 -282 -3
-16 -6 -27 -7 -27 -1 0 5 -7 7 -15 4 -15 -6 -20 9 -28 81 l-4 40 38 -3 c62 -6
89 4 89 34 0 19 8 28 35 40 36 15 105 15 105 0 0 -5 -13 -6 -30 -3 -34 7 -51
-9 -18 -17 13 -2 2 -4 -24 -3 -41 2 -47 -1 -51 -20 -4 -21 -1 -21 87 -21 50 1
101 -2 113 -6 12 -4 24 -3 27 2 3 5 27 6 56 1 34 -5 60 -4 76 3 19 9 27 9 32
1 8 -13 179 -23 209 -12 23 8 29 28 38 123 3 32 10 67 16 77 5 11 8 19 7 20
-2 0 -69 1 -150 2 -143 3 -173 -3 -125 -23 19 -9 18 -10 -10 -7 -26 3 -30 1
-22 -10 7 -7 20 -13 31 -13 10 0 17 -4 13 -9 -3 -5 3 -12 12 -14 15 -4 15 -5
-2 -6 -11 0 -26 -10 -33 -21 -10 -17 -16 -18 -33 -10 -11 6 -30 10 -42 8 -12
-2 -27 3 -32 10 -6 8 -44 16 -90 20 l-80 7 70 5 c47 4 76 2 89 -6 10 -7 26
-10 35 -7 14 4 14 3 1 -7 -13 -9 -12 -11 5 -8 27 4 31 34 5 41 -11 3 -20 12
-20 20 0 9 -8 18 -17 21 -10 3 6 3 35 0 43 -5 52 -3 52 10 0 17 -31 19 -302
20 -65 1 -118 4 -118 8 0 5 -3 7 -7 7 -5 -1 -32 -6 -60 -11z m372 -38 c3 -6
-1 -7 -9 -4 -18 7 -21 14 -7 14 6 0 13 -4 16 -10z m-32 -14 c3 -8 -8 -12 -39
-12 -24 0 -44 4 -44 9 0 5 -7 6 -16 3 -8 -3 -13 -2 -10 2 8 14 104 12 109 -2z
m338 -27 c8 -17 6 -19 -20 -19 -33 0 -70 28 -51 40 18 11 60 -1 71 -21z m-96
1 c3 -6 -4 -10 -17 -10 -18 0 -20 2 -8 10 19 12 18 12 25 0z m-435 -25 c0 -13
-4 -14 -20 -5 -11 6 -20 13 -20 15 0 3 9 5 20 5 11 0 20 -7 20 -15z m68 8
c-10 -2 -28 -2 -40 0 -13 2 -5 4 17 4 22 1 32 -1 23 -4z m447 -37 c28 -13 26
-14 -40 -12 -38 0 -80 -3 -93 -7 -21 -8 -22 -7 -11 10 14 24 98 29 144 9z
m-342 -3 c-13 -2 -35 -2 -50 0 -16 2 -5 4 22 4 28 0 40 -2 28 -4z m147 -18 c0
-8 6 -12 13 -10 14 6 44 -11 35 -20 -3 -4 -25 2 -47 12 -23 11 -38 22 -35 26
13 12 34 7 34 -8z m-149 -20 c-14 -7 -32 -10 -40 -7 -12 4 -11 7 3 12 10 3 27
7 39 7 21 2 21 1 -2 -12z m244 5 c-3 -5 -14 -10 -23 -9 -14 0 -13 2 3 9 27 11
27 11 20 0z m91 -2 c9 -14 -26 -21 -41 -8 -8 6 -20 8 -26 4 -8 -4 -9 -3 -5 5
8 12 64 12 72 -1z m-336 -38 c12 -8 9 -10 -12 -10 -16 0 -28 5 -28 10 0 13 20
13 40 0z m133 -7 c-7 -2 -19 -2 -25 0 -7 3 -2 5 12 5 14 0 19 -2 13 -5z m-484
-39 c10 -9 -35 -3 -49 6 -11 8 -7 9 15 4 17 -4 32 -8 34 -10z m-9 -24 c0 -5
-6 -10 -14 -10 -8 0 -18 5 -21 10 -3 6 3 10 14 10 12 0 21 -4 21 -10z m-5 -50
c3 -5 -3 -10 -15 -10 -12 0 -18 5 -15 10 3 6 10 10 15 10 5 0 12 -4 15 -10z
m8 -36 c9 -3 15 -9 12 -14 -7 -12 40 -24 54 -15 6 3 11 1 11 -6 0 -7 -11 -10
-30 -7 -17 3 -33 1 -36 -3 -8 -14 46 -22 71 -11 20 9 23 9 18 -3 -3 -10 -19
-15 -43 -15 -21 0 -46 -3 -56 -7 -12 -5 -15 -3 -9 6 5 10 1 12 -16 7 -13 -3
-18 -3 -11 0 17 8 15 24 -3 24 -7 0 -18 6 -22 13 -4 8 -17 19 -28 25 -17 9
-13 11 25 11 25 0 53 -3 63 -5z m137 -19 c-7 -8 -20 -15 -28 -15 -13 0 -12 3
4 15 25 19 40 19 24 0z m90 -10 c0 -2 -7 -5 -15 -9 -9 -3 -15 0 -15 9 0 9 6
12 15 9 8 -4 15 -7 15 -9z m430 -25 c0 -10 -7 -21 -16 -24 -15 -6 -15 -4 -3
10 11 13 11 18 2 21 -7 3 -13 9 -13 14 0 4 7 6 15 3 8 -4 15 -14 15 -24z
m-220 10 c0 -5 -4 -10 -10 -10 -5 0 -10 5 -10 10 0 6 5 10 10 10 6 0 10 -4 10
-10z m-210 -20 c-20 -13 -33 -13 -25 0 3 6 14 10 23 10 15 0 15 -2 2 -10z
m160 -25 c-7 -8 -20 -15 -29 -15 -11 0 -8 5 9 14 33 19 35 19 20 1z m-305 -5
c-3 -5 -14 -10 -23 -9 -14 0 -13 2 3 9 27 11 27 11 20 0z m122 4 c-3 -3 -12
-4 -19 -1 -8 3 -5 6 6 6 11 1 17 -2 13 -5z m314 -20 c12 -14 4 -34 -13 -34 -7
0 -6 6 2 15 7 8 8 15 3 15 -5 0 -18 7 -29 15 -18 14 -18 14 3 8 12 -3 27 -11
34 -19z m-572 5 c17 -6 31 -15 31 -20 0 -9 -28 -1 -47 14 -7 5 -22 7 -33 4
-11 -3 -20 -1 -20 4 0 12 30 11 69 -2z m78 -9 c25 -20 25 -20 4 -20 -12 0 -19
4 -16 10 3 6 -1 10 -9 10 -8 0 -18 5 -21 10 -11 17 16 11 42 -10z m183 0 c0
-5 -4 -10 -9 -10 -6 0 -13 5 -16 10 -3 6 1 10 9 10 9 0 16 -4 16 -10z m-61
-19 c11 -7 10 -11 -7 -20 -15 -8 -23 -7 -31 3 -19 22 9 35 38 17z m168 3 c-3
-3 -12 -4 -19 -1 -8 3 -5 6 6 6 11 1 17 -2 13 -5z m161 -6 c-5 -15 -48 -24
-48 -10 0 14 12 22 33 22 10 0 17 -5 15 -12z m-463 -28 c14 0 13 -3 -3 -20
-16 -17 -22 -18 -45 -7 -15 6 -29 18 -32 25 -9 25 6 32 35 17 16 -8 36 -15 45
-15z m592 4 c-3 -3 -12 -4 -19 -1 -8 3 -5 6 6 6 11 1 17 -2 13 -5z m-147 -14
c-20 -13 -33 -13 -25 0 3 6 14 10 23 10 15 0 15 -2 2 -10z m60 0 c0 -5 -7 -7
-15 -4 -8 4 -15 8 -15 10 0 2 7 4 15 4 8 0 15 -4 15 -10z m-603 -16 c-3 -3
-12 -4 -19 -1 -8 3 -5 6 6 6 11 1 17 -2 13 -5z m17 -50 c9 -8 22 -12 28 -8 9
5 10 4 2 -5 -7 -8 -17 -8 -37 1 -15 7 -27 16 -27 21 0 12 18 8 34 -9z m3 -30
c60 -11 58 -24 -2 -22 -33 1 -69 -2 -80 -6 -11 -4 -8 1 8 10 15 10 27 22 27
27 0 4 5 5 10 2 6 -4 22 -9 37 -11z m33 -50 c0 -2 -7 -4 -15 -4 -8 0 -15 4
-15 10 0 5 7 7 15 4 8 -4 15 -8 15 -10z m-50 -24 c0 -6 -11 -8 -27 -4 -40 10
-41 14 -5 14 18 0 32 -5 32 -10z m34 -25 c-14 -14 -30 -25 -36 -25 -14 0 -4
-11 14 -14 7 -2 21 -6 31 -11 9 -4 23 -5 30 -2 8 3 19 2 26 -2 6 -4 -7 -8 -31
-9 -23 -1 -50 -5 -60 -8 -13 -4 -16 -1 -12 10 4 10 1 16 -8 16 -16 0 -58 33
-58 45 0 5 11 -2 24 -14 l24 -22 28 30 c16 16 34 30 41 31 7 0 1 -11 -13 -25z
m20 -20 c3 -9 0 -15 -9 -15 -9 0 -12 6 -9 15 4 8 7 15 9 15 2 0 5 -7 9 -15z
m123 -31 c-3 -3 -12 -4 -19 -1 -8 3 -5 6 6 6 11 1 17 -2 13 -5z m398 -4 c3 -5
-1 -10 -9 -10 -9 0 -16 5 -16 10 0 6 4 10 9 10 6 0 13 -4 16 -10z m-378 -42
c-3 -8 -6 -5 -6 6 -1 11 2 17 5 13 3 -3 4 -12 1 -19z m153 12 c0 -5 -12 -10
-27 -9 l-28 1 25 8 c14 4 26 8 28 9 1 1 2 -3 2 -9z m390 0 c0 -5 -7 -10 -16
-10 -8 0 -12 5 -9 10 3 6 10 10 16 10 5 0 9 -4 9 -10z m-205 -20 c3 -5 -1 -10
-10 -10 -9 0 -13 5 -10 10 3 6 8 10 10 10 2 0 7 -4 10 -10z m-275 -20 c0 -5
-2 -10 -4 -10 -3 0 -8 5 -11 10 -3 6 -1 10 4 10 6 0 11 -4 11 -10z m-261 -13
c8 -11 5 -13 -19 -9 -17 2 -33 8 -36 13 -9 14 42 10 55 -4z m618 -3 c-30 -16
-44 -14 -32 5 3 6 18 11 33 11 l27 -1 -28 -15z m-637 -34 c0 -5 -5 -10 -11
-10 -5 0 -7 5 -4 10 3 6 8 10 11 10 2 0 4 -4 4 -10z m664 -9 c3 -4 -6 -6 -19
-3 -14 2 -25 6 -25 8 0 8 39 4 44 -5z m144 -14 c6 -7 9 -23 5 -35 -6 -25 -5
-24 -27 -16 -13 5 -14 9 -5 20 9 11 7 14 -12 14 -23 1 -23 1 -5 15 24 18 31
19 44 2z m-515 -11 c4 -10 0 -12 -15 -8 -15 4 -17 7 -6 13 17 11 15 11 21 -5z
m347 4 c0 -5 -2 -10 -4 -10 -3 0 -8 5 -11 10 -3 6 -1 10 4 10 6 0 11 -4 11
-10z m-198 -44 c-3 -5 -11 -1 -19 9 -20 28 -16 41 6 19 10 -10 16 -23 13 -28z
m278 -26 c0 -5 -4 -10 -10 -10 -5 0 -10 5 -10 10 0 6 5 10 10 10 6 0 10 -4 10
-10z m-325 -10 c3 -5 -1 -10 -9 -10 -9 0 -16 5 -16 10 0 6 4 10 9 10 6 0 13
-4 16 -10z"/>
<path d="M3035 1322 c-5 -6 -45 -13 -87 -16 -64 -4 -90 -12 -156 -45 -72 -37
-81 -45 -106 -96 -33 -64 -45 -169 -24 -196 7 -9 33 -26 56 -38 34 -18 41 -25
32 -36 -7 -8 -7 -15 -1 -19 5 -4 12 -2 15 3 11 17 58 22 75 8 9 -8 74 -33 145
-56 71 -23 146 -51 165 -61 93 -48 145 -135 122 -202 -6 -17 -9 -34 -6 -38 6
-10 -50 -49 -93 -64 -48 -16 -228 -21 -237 -7 -3 6 -17 11 -31 11 -48 0 -124
42 -124 69 0 13 -54 173 -63 188 -6 9 -36 12 -97 12 -107 -2 -103 4 -90 -149
6 -63 75 -180 133 -224 19 -15 69 -35 117 -47 46 -11 96 -27 111 -35 34 -17
63 -18 89 -2 14 9 22 10 31 1 7 -7 21 -8 40 -3 17 5 31 5 34 -1 4 -5 48 -9 98
-9 115 1 186 23 259 82 127 103 134 114 133 201 0 31 4 47 12 47 29 0 -1 56
-42 78 -17 10 -18 11 -2 12 9 0 17 2 17 4 0 2 -24 30 -54 61 -42 44 -63 57
-93 62 -21 3 -78 18 -126 34 -65 22 -98 28 -124 23 -26 -5 -34 -4 -29 5 4 6 1
11 -8 11 -9 0 -16 4 -16 9 0 11 -80 37 -142 46 -27 4 -48 11 -48 15 0 5 -13
21 -30 37 -16 15 -30 36 -30 45 0 9 -5 20 -11 23 -6 4 -7 19 -4 36 5 22 3 29
-9 29 -9 0 -16 4 -16 9 0 6 12 6 30 -1 26 -8 34 -7 51 8 19 17 37 19 163 17
231 -4 251 -8 299 -58 59 -61 71 -76 83 -110 6 -18 16 -29 25 -27 7 2 43 4 79
5 l65 2 3 56 c2 43 -2 65 -19 93 -11 20 -26 36 -32 36 -9 0 -9 2 -1 8 7 4 -21
33 -73 75 l-84 67 -82 1 c-45 0 -91 3 -102 5 -45 12 -180 15 -190 6z m252 -58
c-3 -3 -12 -4 -19 -1 -8 3 -5 6 6 6 11 1 17 -2 13 -5z m-322 -14 c-3 -5 -11
-10 -16 -10 -6 0 -7 5 -4 10 3 6 11 10 16 10 6 0 7 -4 4 -10z m446 -23 c-1
-12 -15 -9 -19 4 -3 6 1 10 8 8 6 -3 11 -8 11 -12z m-626 -7 c3 -5 1 -10 -4
-10 -6 0 -11 5 -11 10 0 6 2 10 4 10 3 0 8 -4 11 -10z m289 -22 c-20 -17 -44
-24 -44 -14 0 2 -3 11 -6 19 -4 11 4 14 34 13 l39 -1 -23 -17z m-186 -3 c2 -1
-3 -5 -10 -7 -7 -3 -26 1 -43 9 l-30 13 40 -6 c22 -4 41 -8 43 -9z m2 -25 c0
-5 -5 -10 -11 -10 -5 0 -7 5 -4 10 3 6 8 10 11 10 2 0 4 -4 4 -10z m620 0 c0
-5 -2 -10 -4 -10 -3 0 -8 5 -11 10 -3 6 -1 10 4 10 6 0 11 -4 11 -10z m5 -30
c3 -5 1 -10 -4 -10 -6 0 -11 5 -11 10 0 6 2 10 4 10 3 0 8 -4 11 -10z m-764
-20 c17 0 9 -19 -12 -31 -15 -8 -24 -8 -32 0 -8 8 -4 11 13 11 23 0 23 0 4 16
-17 14 -17 15 -1 10 10 -3 23 -6 28 -6z m842 -6 c8 -8 -3 -34 -14 -34 -5 0 -9
9 -9 20 0 19 11 26 23 14z m-841 -56 c-7 -7 -12 -8 -12 -2 0 14 12 26 19 19 2
-3 -1 -11 -7 -17z m48 18 c0 -2 -7 -7 -16 -10 -8 -3 -12 -2 -9 4 6 10 25 14
25 6z m734 -37 c-3 -5 -11 -9 -19 -9 -8 0 -16 4 -19 9 -3 5 5 9 19 9 14 0 22
-4 19 -9z m-664 -67 c0 -5 12 -15 28 -22 16 -7 22 -14 14 -17 -7 -3 -24 2 -37
11 -25 17 -33 36 -15 36 6 0 10 -4 10 -8z m51 -70 c-7 -2 -18 1 -23 6 -8 8 -4
9 13 5 13 -4 18 -8 10 -11z m79 -18 c0 -8 -4 -12 -10 -9 -5 3 -10 10 -10 16 0
5 5 9 10 9 6 0 10 -7 10 -16z m340 -138 c0 -2 3 -12 6 -21 6 -15 4 -15 -15 -4
-25 16 -27 29 -6 29 8 0 15 -2 15 -4z m180 -106 c-20 -13 -50 -13 -50 0 0 6
15 10 33 10 24 0 28 -3 17 -10z m-850 -30 c0 -5 -2 -10 -4 -10 -3 0 -8 5 -11
10 -3 6 -1 10 4 10 6 0 11 -4 11 -10z m839 -5 c-9 -9 -23 -13 -32 -9 -24 9
-11 24 21 24 24 0 25 -2 11 -15z m-875 -5 c-7 -7 -19 -7 -35 -1 -23 9 -22 10
11 10 23 1 31 -2 24 -9z m894 -51 c-7 -5 -23 -9 -36 -9 -18 0 -20 3 -10 13 6
8 23 11 36 9 18 -3 20 -7 10 -13z m-891 5 c-3 -3 -12 -4 -19 -1 -8 3 -5 6 6 6
11 1 17 -2 13 -5z m153 -94 c0 -5 -4 -10 -10 -10 -5 0 -10 5 -10 10 0 6 5 10
10 10 6 0 10 -4 10 -10z m660 6 c0 -3 -4 -8 -10 -11 -5 -3 -10 -1 -10 4 0 6 5
11 10 11 6 0 10 -2 10 -4z m-640 -51 c-14 -17 -30 -20 -30 -5 0 6 7 10 15 10
8 0 15 5 15 12 0 6 3 8 6 5 4 -4 1 -13 -6 -22z m80 21 c0 -8 -51 -13 -56 -5
-3 5 9 9 25 9 17 0 31 -2 31 -4z m520 -26 c0 -5 -2 -10 -4 -10 -3 0 -8 5 -11
10 -3 6 -1 10 4 10 6 0 11 -4 11 -10z m-466 -26 c3 -8 2 -12 -4 -9 -6 3 -10
10 -10 16 0 14 7 11 14 -7z m113 -21 c-8 -7 -37 9 -31 19 3 5 12 4 20 -3 8 -6
13 -14 11 -16z m-202 7 c3 -6 -1 -7 -9 -4 -18 7 -21 14 -7 14 6 0 13 -4 16
-10z m194 -48 c-5 -2 -6 -9 -3 -15 4 -7 -1 -5 -11 5 -9 9 -14 21 -11 27 5 8
11 7 21 -2 7 -6 9 -14 4 -15z"/>
<path d="M2135 1220 c-3 -5 -1 -10 4 -10 6 0 11 5 11 10 0 6 -2 10 -4 10 -3 0
-8 -4 -11 -10z"/>
<path d="M1705 290 c-7 -12 2 -12 30 0 19 8 19 9 -2 9 -12 1 -25 -3 -28 -9z"/>
<path d="M605 50 c-3 -5 -1 -10 4 -10 6 0 11 5 11 10 0 6 -2 10 -4 10 -3 0 -8
-4 -11 -10z"/>
</g>
</svg>
