<?xml version="1.0" ?><!DOCTYPE svg  PUBLIC '-//W3C//DTD SVG 1.1//EN'  'http://www.w3.org/Graphics/SVG/1.1/DTD/svg11.dtd'><svg enable-background="new 0 0 24 24" height="24px" id="Layer_1" version="1.1" viewBox="0 0 24 24" width="24px" xml:space="preserve" xmlns="http://www.w3.org/2000/svg" xmlns:xlink="http://www.w3.org/1999/xlink"><g><path d="M21.5,24h-5c-0.275,0-0.5-0.225-0.5-0.5v-9c0-0.275,0.225-0.5,0.5-0.5h2.641l0.666-2H16.5c-0.275,0-0.5-0.225-0.5-0.5V8.25   C16,6.86,17.559,6,19,6h1V4h-2c-1.85,0-4,1.529-4,3.5v4c0,0.275-0.225,0.5-0.5,0.5H10v2h3.5c0.275,0,0.5,0.225,0.5,0.5v9   c0,0.275-0.225,0.5-0.5,0.5h-11C1.122,24,0,22.879,0,21.5v-19C0,1.121,1.122,0,2.5,0h19C22.879,0,24,1.121,24,2.5v19   C24,22.879,22.879,24,21.5,24z M17,23h4.5c0.827,0,1.5-0.673,1.5-1.5v-19C23,1.673,22.327,1,21.5,1h-19C1.673,1,1,1.673,1,2.5v19   C1,22.327,1.673,23,2.5,23H13v-8H9.5C9.224,15,9,14.775,9,14.5v-3C9,11.225,9.224,11,9.5,11H13V7.5C13,4.925,15.641,3,18,3h2.5   C20.775,3,21,3.225,21,3.5v3C21,6.775,20.775,7,20.5,7H19c-0.835,0-2,0.477-2,1.25V11h3.5c0.161,0,0.313,0.077,0.404,0.208   c0.096,0.13,0.121,0.298,0.07,0.45l-1,3C19.906,14.862,19.713,15,19.498,15H17V23z"/></g></svg>