<?xml version="1.0" ?>
<svg height="60px" version="1.1" viewBox="0 0 60 60" width="60px" xmlns="http://www.w3.org/2000/svg"
     xmlns:xlink="http://www.w3.org/1999/xlink">
    <title/>
    <desc/>
    <defs/>
    <g fill="none" fill-rule="evenodd" id="Page-1" stroke="none" stroke-width="1">
        <g id="Viber" stroke="#000000" stroke-width="2" transform="translate(1.000000, 1.000000)">
            <path d="M52.4926,42.7537 C53.3096,43.7637 53.4566,45.0597 52.9016,46.4937 C52.3156,48.0047 50.0326,50.8427 48.4366,52.0537 C46.9946,53.1407 45.9766,53.5647 44.6276,53.6267 C43.5166,53.6807 43.0536,53.5877 41.6356,53.0017 C30.5076,48.4217 21.6246,41.5817 14.5686,32.1897 C10.8826,27.2767 8.0836,22.1877 6.1636,16.9137 C5.0456,13.8367 4.9916,12.4947 5.9086,10.9217 C6.3026,10.2587 7.9906,8.6087 9.2246,7.6907 C11.2686,6.1717 12.2086,5.6087 12.9646,5.4547 C13.4816,5.3467 14.3756,5.4307 14.9466,5.6317 C15.2236,5.7317 15.6486,5.9557 15.8946,6.1097 C17.3986,7.1047 21.5936,12.4637 22.9666,15.1397 C23.7526,16.6667 24.0076,17.7997 23.7686,18.6407 C23.5136,19.5427 23.0896,20.0137 21.2156,21.5247 C20.4596,22.1337 19.7586,22.7587 19.6426,22.9277 C19.3576,23.3367 19.1256,24.1467 19.1256,24.7167 C19.1336,26.0357 19.9896,28.4337 21.1156,30.2767 C21.9866,31.7107 23.5526,33.5467 25.0946,34.9577 C26.9146,36.6157 28.5106,37.7487 30.3226,38.6437 C32.6436,39.8007 34.0626,40.0937 35.0956,39.6077 C35.3586,39.4917 35.6356,39.3297 35.7286,39.2607 C35.8056,39.1907 36.4146,38.4427 37.0776,37.6257 C38.3656,36.0067 38.6586,35.7517 39.5376,35.4437 C40.6556,35.0657 41.7976,35.1737 42.9456,35.7597 C43.8176,36.2067 45.7216,37.3867 46.9486,38.2427 C48.5676,39.3757 52.0226,42.1907 52.4926,42.7537 L52.4926,42.7537 Z"
                  id="Stroke-55"/>
            <path d="M52.9398,27.6242 C52.9938,29.0042 52.9548,29.3132 52.6388,29.7062 C52.0378,30.4772 50.7108,30.3542 50.2638,29.4902 C50.1178,29.2052 50.0788,28.9582 50.0328,27.8482 C49.9558,26.1512 49.8318,25.0482 49.5928,23.7382 C48.6598,18.5862 46.1848,14.4692 42.2448,11.5152 C38.9518,9.0482 35.5508,7.8452 31.0938,7.5822 C29.5898,7.4982 29.3278,7.4362 28.9888,7.1812 C28.3568,6.6802 28.3258,5.5082 28.9348,4.9612 C29.3048,4.6212 29.5668,4.5752 30.8628,4.6142 C31.5338,4.6372 32.5208,4.7142 33.0598,4.7832 C35.7898,5.1232 37.9958,5.7782 40.4088,6.9582 C42.7838,8.1222 44.3108,9.2172 46.3238,11.2222 C48.2048,13.1112 49.2538,14.5462 50.3638,16.7672 C51.9068,19.8742 52.7928,23.5602 52.9398,27.6242 L52.9398,27.6242 Z"
                  id="Stroke-56"/>
            <path d="M47.1101,24.0924 C47.2101,25.0334 47.2101,26.7524 47.1021,27.0384 C46.9941,27.3004 46.6631,27.6704 46.3771,27.8174 C46.0691,27.9784 45.4141,27.9634 45.0431,27.7704 C44.4341,27.4624 44.2571,26.9684 44.2571,25.6424 C44.2571,23.5914 43.7251,21.4324 42.7991,19.7514 C41.7581,17.8384 40.2321,16.2574 38.3811,15.1554 C36.7851,14.2064 34.4331,13.5044 32.2891,13.3274 C31.5101,13.2654 31.0781,13.1034 30.7851,12.7644 C30.3381,12.2484 30.2921,11.5534 30.6701,10.9754 C31.0781,10.3354 31.7181,10.2354 33.6081,10.5204 C38.4191,11.2224 42.1441,13.4504 44.5881,17.0754 C45.9611,19.1184 46.8171,21.5164 47.1101,24.0924 L47.1101,24.0924 Z"
                  id="Stroke-57"/>
            <path d="M41.0568,25.7041 C40.5938,26.1361 39.7308,26.1511 39.2058,25.7431 C38.8278,25.4571 38.7048,25.1561 38.6198,24.3471 C38.5118,23.2591 38.3268,22.5041 38.0028,21.7941 C37.3018,20.2981 36.0758,19.5271 34.0008,19.2731 C33.0218,19.1491 32.7288,19.0411 32.4128,18.6711 C31.8338,17.9771 32.0578,16.8671 32.8598,16.4501 C33.1608,16.3041 33.2838,16.2891 33.9468,16.3271 C34.3638,16.3501 34.9728,16.4201 35.2968,16.4971 C36.8618,16.8281 38.0568,17.4221 39.0748,18.3781 C40.3938,19.6201 41.1188,21.1231 41.4348,23.2831 C41.6428,24.6941 41.5578,25.2491 41.0568,25.7041 L41.0568,25.7041 Z"
                  id="Stroke-58"/>
            <path d="M54,58 L4,58 C1.791,58 0,56.209 0,54 L0,4 C0,1.791 1.791,0 4,0 L54,0 C56.209,0 58,1.791 58,4 L58,54 C58,56.209 56.209,58 54,58 L54,58 Z"
                  id="Stroke-111" stroke-linejoin="round"/>
        </g>
    </g>
</svg>