<?xml version="1.0" ?><svg height="60px" version="1.1" viewBox="0 0 60 60" width="60px" xmlns="http://www.w3.org/2000/svg" xmlns:xlink="http://www.w3.org/1999/xlink"><title/><desc/><defs/><g fill="none" fill-rule="evenodd" id="Page-1" stroke="none" stroke-linejoin="round" stroke-width="1"><g id="Twitter" stroke="#ff5296" stroke-width="2" transform="translate(1.000000, 1.000000)"><path d="M54,58 L4,58 C1.791,58 0,56.209 0,54 L0,4 C0,1.791 1.791,0 4,0 L54,0 C56.209,0 58,1.791 58,4 L58,54 C58,56.209 56.209,58 54,58 L54,58 Z" id="Stroke-100"/></g></g>

<g id="surface1">


<path style="fill-rule:nonzero;fill:#ff5296;fill-opacity:1;" d="M 24.609375 33.632812 C 25.125 36.234375 27.421875 38.132812 30.070312 38.132812 C 32.71875 38.132812 35.015625 36.234375 35.53125 33.632812 L 36.210938 30.140625 C 36.445312 28.476562 35.929688 26.8125 34.828125 25.546875 C 33.726562 24.28125 32.132812 23.554688 30.46875 23.554688 L 29.671875 23.554688 C 28.007812 23.554688 26.414062 24.28125 25.3125 25.546875 C 24.210938 26.8125 23.71875 28.476562 23.953125 30.210938 Z M 27.09375 27.117188 C 27.75 26.367188 28.664062 25.945312 29.648438 25.945312 L 30.445312 25.945312 C 31.429688 25.945312 32.367188 26.367188 33 27.117188 C 33.65625 27.867188 33.9375 28.851562 33.820312 29.742188 L 33.164062 33.1875 C 32.882812 34.664062 31.570312 35.742188 30.046875 35.742188 C 28.523438 35.742188 27.234375 34.664062 26.929688 33.1875 L 26.273438 29.8125 C 26.15625 28.828125 26.460938 27.84375 27.09375 27.117188 Z M 27.09375 27.117188 "/>
<path style="fill-rule:nonzero;fill:#ff5296;fill-opacity:1;" d="M 39.5625 41.648438 L 34.195312 39.75 L 30.046875 43.898438 L 25.898438 39.75 L 20.53125 41.648438 C 19.710938 41.929688 19.101562 42.632812 18.9375 43.476562 L 17.039062 52.40625 L 43.054688 52.40625 L 41.15625 43.476562 C 40.992188 42.65625 40.382812 41.953125 39.5625 41.648438 Z M 19.992188 50.015625 L 21.28125 43.96875 C 21.28125 43.921875 21.304688 43.898438 21.351562 43.898438 L 25.289062 42.492188 L 30.070312 47.273438 L 34.851562 42.492188 L 38.789062 43.898438 C 38.8125 43.921875 38.859375 43.945312 38.859375 43.96875 L 40.148438 50.015625 Z M 19.992188 50.015625 "/>
</g>
</svg>