<svg width="256" height="256" xmlns="http://www.w3.org/2000/svg">

 <g>
  <title>background</title>
  <rect fill="none" id="canvas_background" height="402" width="582" y="-1" x="-1"/>
 </g>
 <g>
  <title>Layer 1</title>
  <path fill="#ff5296" id="svg_2" d="m227.6,58.3l-48.6,-48.7c-2.6,-2.6 -6.1,-4 -9.8,-4l-124.1,0c-11.5,0 -20.8,9.3 -20.8,20.8l0,203.3c0,11.5 9.3,20.8 20.8,20.8l165.8,0c11.5,0 20.8,-9.3 20.8,-20.8l0,-161.7c0,-3.7 -1.4,-7.1 -4.1,-9.7zm-6.1,171.3c0,5.8 -4.8,10.6 -10.6,10.6l-165.8,0c-5.8,0 -10.6,-4.8 -10.6,-10.6l0,-203.2c0,-5.8 4.8,-10.6 10.6,-10.6l124.2,0c1,0 1.9,0.4 2.6,1.1l48.6,48.6c0.7,0.7 1.1,1.6 1.1,2.6l0,161.5l-0.1,0z"/>
  <path fill="#ff5296" id="svg_3" d="m209.2,71.7l-32.9,0c-5.8,0 -10.6,-4.8 -10.6,-10.6l0,-33c0,-2.8 -2.3,-5.1 -5.1,-5.1c-2.8,0 -5.1,2.3 -5.1,5.1l0,32.9c0,11.5 9.3,20.8 20.8,20.8l32.9,0c2.8,0 5.1,-2.3 5.1,-5.1s-2.3,-5 -5.1,-5z"/>
  <path fill="#ff5296" id="svg_4" d="m105,143.5l0,0c2.2,11.1 12,19.2 23.3,19.2c11.3,0 21.1,-8.1 23.3,-19.2l2.9,-14.9c1,-7.1 -1.2,-14.2 -5.9,-19.6c-4.7,-5.4 -11.5,-8.5 -18.6,-8.5l-3.4,0c-7.1,0 -13.9,3.1 -18.6,8.5c-4.7,5.4 -6.8,12.5 -5.8,19.9l2.8,14.6zm10.6,-27.8c2.8,-3.2 6.7,-5 10.9,-5l3.4,0c4.2,0 8.2,1.8 10.9,5c2.8,3.2 4,7.4 3.5,11.2l-2.8,14.7c-1.2,6.3 -6.8,10.9 -13.3,10.9c-6.5,0 -12,-4.6 -13.3,-10.9l-2.8,-14.4c-0.5,-4.2 0.8,-8.4 3.5,-11.5z"/>
  <path fill="#ff5296" id="svg_5" d="m168.8,177.7l-22.9,-8.1l-17.7,17.7l-17.7,-17.7l-22.9,8.1c-3.5,1.2 -6.1,4.2 -6.8,7.8l-8.1,38.1l111,0l-8.1,-38.1c-0.7,-3.5 -3.3,-6.5 -6.8,-7.8zm-83.5,35.7l5.5,-25.8c0,-0.2 0.1,-0.3 0.3,-0.3l16.8,-6l20.4,20.4l20.4,-20.4l16.8,6c0.1,0.1 0.3,0.2 0.3,0.3l5.5,25.8l-86,0z"/>
 </g>
</svg>